<svg xmlns="http://www.w3.org/2000/svg" width="24" height="24" viewBox="0 0 24 24">
    <path fill="#FFF" fill-rule="nonzero" d="M12 0C5.38 0 0 5.38 0 12s5.38 12 12 12 12-5.38 12-12S18.62 0 12 0zm-1.034 12.103c0 .414-.104.828-.31 1.138l1.24 1.242c.31-.207.725-.31 1.138-.31 1.035 0 1.966.93 1.966 1.965a1.964 1.964 0 0 1-1.966 1.965 1.964 1.964 0 0 1-1.965-1.965c0-.31.103-.62.207-.931L9.93 13.862c-.31.104-.62.207-.931.207a1.964 1.964 0 0 1-1.966-1.966c0-1.137.932-1.965 1.966-1.965.31 0 .62.103.828.207l1.448-1.448a1.949 1.949 0 0 1-.207-.828C11.069 6.828 12 6 13.034 6 14.172 6 15 6.931 15 7.966a1.964 1.964 0 0 1-1.966 1.965c-.413 0-.827-.103-1.137-.414l-1.345 1.345c.207.31.414.724.414 1.241z"/>
</svg>
