<svg xmlns="http://www.w3.org/2000/svg" width="24" height="24" viewBox="0 0 24 24">
    <path fill="#FFF" fill-rule="evenodd" d="M12 0c6.627 0 12 5.373 12 12s-5.373 12-12 12S0 18.627 0 12 5.373 0 12 0zm0 5c-3.86 0-7 3.14-7 7s3.14 7 7 7 7-3.14 7-7-3.14-7-7-7zm1.06 7.979a24.853 24.853 0 0 1 1.276 4.534 5.967 5.967 0 0 1-6.006-.787c.625-1.277 2.32-2.925 4.73-3.747zm4.843-.02a5.99 5.99 0 0 1-2.562 4.007 25.806 25.806 0 0 0-1.162-4.263c1.874-.3 3.52.19 3.724.255zm-5.734-1.983c.171.334.335.675.485 1.014-2.162.61-4.127 2.358-5.096 4.017a5.955 5.955 0 0 1-1.534-4.18c.262.005 3.159.042 6.145-.851zm4.46-2.748a5.95 5.95 0 0 1 1.35 3.725c-.198-.042-2.175-.443-4.164-.193a18.52 18.52 0 0 0-.525-1.174c2.21-.903 3.212-2.187 3.338-2.358zm-7.171-1.63a38.15 38.15 0 0 1 2.217 3.458c-2.797.743-5.26.732-5.528.729a6.001 6.001 0 0 1 3.311-4.187zm6.505.939c-.107.153-1.007 1.363-3.133 2.16a31.915 31.915 0 0 0-2.231-3.5 5.964 5.964 0 0 1 5.364 1.34z"/>
</svg>
