<svg xmlns="http://www.w3.org/2000/svg" xmlns:xlink="http://www.w3.org/1999/xlink" width="32" height="32" viewBox="0 0 32 32">
    <defs>
        <path id="prefix__a" d="M31.501 27.615l-6.22-6.22c-.28-.28-.66-.436-1.06-.436h-1.016c1.721-2.202 2.744-4.971 2.744-7.984C25.95 5.807 20.142 0 12.975 0 5.807 0 0 5.807 0 12.975c0 7.167 5.807 12.974 12.975 12.974 3.013 0 5.782-1.023 7.984-2.744v1.016c0 .4.156.78.437 1.06l6.219 6.22c.586.586 1.534.586 2.114 0l1.766-1.765c.586-.587.586-1.535.006-2.121zm-18.526-6.656c-4.41 0-7.985-3.568-7.985-7.984 0-4.41 3.568-7.985 7.985-7.985 4.41 0 7.984 3.568 7.984 7.985 0 4.41-3.568 7.984-7.984 7.984z"/>
    </defs>
    <g fill="none" fill-rule="evenodd">
        <mask id="prefix__b" fill="#fff">
            <use xlink:href="#prefix__a"/>
        </mask>
        <use fill="#000" fill-rule="nonzero" xlink:href="#prefix__a"/>
        <g fill="#725b45" mask="url(#prefix__b)">
            <path d="M0 0H32V32H0z"/>
        </g>
    </g>
</svg>
