<svg xmlns="http://www.w3.org/2000/svg" width="24" height="24" viewBox="0 0 24 24">
    <path fill="#FFF" fill-rule="evenodd" d="M12 0c6.627 0 12 5.373 12 12s-5.373 12-12 12S0 18.627 0 12 5.373 0 12 0zm.053 4l-8.05 5.326c0 1.621.005 3.164-.002 4.707-.002.37-.015.732.151.936L11.728 20h.668c1.257-.858 2.51-1.763 3.813-2.592 1.297-.827 2.591-1.656 3.791-2.525v-5.56C17.415 7.493 14.735 5.796 12.053 4zm-3.636 8.964l2.944 1.957v3.194l-5.347-3.538c.786-.612 1.579-1.085 2.403-1.613zm7.28-.017l2.405 1.597-5.244 3.502c.018.009-.007.003-.022-.012-.019-.02-.041-.046-.041-.07l-.002-1.042v-2.055l2.905-1.92zm-3.728-2.435c.883.39 1.64 1.011 2.521 1.601l-2.44 1.621-2.453-1.643 2.372-1.579zm6.726.473c.126.445.06.816.072 1.179.011.339.003.678.003 1.138l-1.802-1.221 1.727-1.096zm-13.249.025c.598.35 1.099.704 1.685 1.106l-1.685 1.071zm7.368-4.872l5.332 3.534-2.394 1.612-2.938-1.948zm-1.462-.086v3.235l-2.986 1.997-2.393-1.586c.945-.692 1.855-1.233 2.726-1.83.856-.588 1.741-1.122 2.653-1.816z"/>
</svg>
