<svg xmlns="http://www.w3.org/2000/svg" width="24" height="24" viewBox="0 0 24 24">
    <path fill="#FFF" fill-rule="evenodd" d="M12 0c6.627 0 12 5.373 12 12s-5.373 12-12 12S0 18.627 0 12 5.373 0 12 0zm2.692 6c-1.59 0-2.87 1.36-2.87 3.028 0 .235.027.469.071.694C9.513 9.59 7.39 8.39 5.977 6.553c-.249.45-.39.966-.39 1.528 0 1.05.506 1.978 1.278 2.522a2.776 2.776 0 0 1-1.296-.384v.037c0 1.472.986 2.69 2.3 2.972-.24.066-.497.103-.755.103-.186 0-.364-.019-.542-.047.365 1.2 1.422 2.072 2.683 2.1a5.558 5.558 0 0 1-3.562 1.294c-.24 0-.462-.01-.693-.037A7.803 7.803 0 0 0 9.406 18c5.277 0 8.164-4.613 8.164-8.616 0-.13 0-.262-.01-.393A6.365 6.365 0 0 0 19 7.425a5.516 5.516 0 0 1-1.652.469 2.996 2.996 0 0 0 1.261-1.669c-.55.347-1.172.6-1.82.731A2.795 2.795 0 0 0 14.691 6z"/>
</svg>
