<svg xmlns="http://www.w3.org/2000/svg" width="16" height="16" viewBox="0 0 16 16">
  <path fill="#725b45" d="M11.969 10.354a.687.687 0 0 1-.198.48l-.938.937a.663.663 0 0 1-.948 0L8 9.885l-1.885 1.886a.663.663 0 0 1-.948 0l-.938-.938a.663.663 0 0 1 0-.948L6.115 8 4.229 6.115a.663.663 0 0 1 0-.948l.938-.938a.663.663 0 0 1 .948 0L8 6.115l1.885-1.886a.663.663 0 0 1 .948 0l.938.938a.663.663 0 0 1 0 .948L9.885 8l1.886 1.885a.663.663 0 0 1 .198.47zM16 8c0-4.417-3.583-8-8-8S0 3.583 0 8s3.583 8 8 8 8-3.583 8-8z"></path>
</svg>