<svg xmlns="http://www.w3.org/2000/svg" xmlns:xlink="http://www.w3.org/1999/xlink" width="467" height="200" viewBox="0 0 467 200">
    <defs>
        <linearGradient id="c" x1="28.28%" x2="71.72%" y1="0%" y2="100%">
            <stop offset="0%" stop-color="#725B45"/>
            <stop offset="100%" stop-color="#2B2118"/>
        </linearGradient>
        <path id="b" d="M176 0v176l58-63.935L292 176V0z"/>
        <filter id="a" width="147.4%" height="131.2%" x="-15.1%" y="-9.9%" filterUnits="objectBoundingBox">
            <feOffset dx="10" dy="10" in="SourceAlpha" result="shadowOffsetOuter1"/>
            <feGaussianBlur in="shadowOffsetOuter1" result="shadowBlurOuter1" stdDeviation="7.5"/>
            <feColorMatrix in="shadowBlurOuter1" values="0 0 0 0 0 0 0 0 0 0 0 0 0 0 0 0 0 0 0.5 0"/>
        </filter>
    </defs>
    <g fill="none" fill-rule="evenodd">
        <g>
            <use fill="#000" filter="url(#a)" xlink:href="#b"/>
            <use fill="url(#c)" xlink:href="#b"/>
        </g>
        <g fill="#FFF" fill-rule="nonzero">
            <path d="M49.128 62.384H38.12v-4.992h-4.096v28.8h4.48v10.496h-26.88V86.192h4.48v-28.8h-4.096v4.992H1V46.896h48.128v15.488zm37.726 23.808v10.496H69.958v-4.352c-.938 1.365-2.25 2.581-3.936 3.648-1.685 1.067-3.744 1.6-6.176 1.6-3.2 0-5.717-.853-7.552-2.56-1.834-1.707-2.752-4.117-2.752-7.232 0-8.064 6.848-12.203 20.544-12.416-.128-1.45-.682-2.443-1.664-2.976-.98-.533-2.645-.8-4.992-.8-1.92 0-3.978.203-6.176.608-2.197.405-4.213.95-6.048 1.632V62.064c2.262-.555 4.715-1.003 7.36-1.344a60.496 60.496 0 0 1 7.744-.512c6.358 0 10.902 1.152 13.632 3.456 2.731 2.304 4.096 5.867 4.096 10.688v11.84h2.816zm-16.896-4.48c-1.92 0-3.402.256-4.448.768-1.045.512-1.568 1.365-1.568 2.56 0 .725.224 1.312.672 1.76.448.448 1.078.672 1.888.672 1.11 0 1.963-.47 2.56-1.408.598-.939.896-2.261.896-3.968v-.384zm45.663-21.504c.853 0 1.664.085 2.432.256.768.17 1.408.384 1.92.64v12.224c-1.75-.725-3.627-1.088-5.632-1.088-2.688 0-4.757.704-6.208 2.112-1.45 1.408-2.176 3.499-2.176 6.272v5.568h5.76v10.496H88.421V86.192h2.816V71.6h-2.816V61.104h17.536v4.672c1.195-1.792 2.56-3.168 4.096-4.128s3.392-1.44 5.568-1.44zm21.598 37.376c-4.522 0-7.925-1.099-10.208-3.296-2.282-2.197-3.424-5.899-3.424-11.104V71.6h-2.816V61.104c1.622 0 2.838-.416 3.648-1.248.811-.832 1.216-1.973 1.216-3.424v-2.88h13.568v7.552h8.64V71.6h-8.64v10.496c0 1.408.31 2.443.928 3.104.62.661 1.547.992 2.784.992 1.622 0 3.392-.192 5.312-.576v10.048c-1.194.47-2.805.907-4.832 1.312a31.414 31.414 0 0 1-6.176.608zm49.759-11.392v10.496h-16.896v-4.352c-.939 1.365-2.25 2.581-3.936 3.648-1.685 1.067-3.744 1.6-6.176 1.6-3.2 0-5.717-.853-7.552-2.56s-2.752-4.117-2.752-7.232c0-8.064 6.848-12.203 20.544-12.416-.128-1.45-.683-2.443-1.664-2.976-.981-.533-2.645-.8-4.992-.8-1.92 0-3.979.203-6.176.608-2.197.405-4.213.95-6.048 1.632V62.064c2.261-.555 4.715-1.003 7.36-1.344a60.496 60.496 0 0 1 7.744-.512c6.357 0 10.901 1.152 13.632 3.456 2.73 2.304 4.096 5.867 4.096 10.688v11.84h2.816zm-16.896-4.48c-1.92 0-3.403.256-4.448.768-1.045.512-1.568 1.365-1.568 2.56 0 .725.224 1.312.672 1.76.448.448 1.077.672 1.888.672 1.11 0 1.963-.47 2.56-1.408.597-.939.896-2.261.896-3.968v-.384zm60.83 4.48v10.496h-20.224V86.192h2.688V75.696c0-1.408-.298-2.443-.896-3.104-.597-.661-1.493-.992-2.688-.992-2.56 0-3.84 1.365-3.84 4.096v10.496h2.688v10.496h-20.224V86.192h2.816V71.6h-2.816V61.104h17.536v4.992c3.072-3.925 6.912-5.888 11.52-5.888 3.542 0 6.198 1.11 7.968 3.328 1.771 2.219 2.656 5.27 2.656 9.152v13.504h2.816zm4.51-28.608V46.896h13.057v10.688h-13.056zm-3.071 39.104V86.192h2.816V71.6h-2.816V61.104h17.536v25.088h2.816v10.496H232.35zm21.534-10.496h2.816V71.6h-2.816V61.104h2.944c0-5.205 1.27-9.024 3.808-11.456 2.539-2.432 6.24-3.648 11.104-3.648 2.347 0 4.448.17 6.304.512 1.856.341 3.211.725 4.064 1.152v10.048a67.109 67.109 0 0 0-6.272-.32c-1.664 0-2.816.277-3.456.832-.64.555-.96 1.515-.96 2.88h4.992V71.6h-4.992v14.592h4.992v10.496h-22.528V86.192zm62.495-25.088V71.6h-2.432l-8.384 22.208c-2.09 5.59-4.48 9.781-7.168 12.576-2.688 2.795-6.23 4.192-10.624 4.192-1.792 0-3.606-.181-5.44-.544-1.835-.363-3.499-.864-4.992-1.504V96.944h8.832v.64c0 1.067.554 1.6 1.664 1.6.981 0 1.728-.47 2.24-1.408L279.964 71.6h-2.432V61.104h19.008V71.6h-2.176l3.328 9.984 3.072-9.984h-2.176V61.104h17.792z"/>
            <path fill-opacity=".497" d="M313.338 96.688V86.192h9.984v10.496h-9.984zm32.735.896c-6.102 0-10.859-1.59-14.272-4.768-3.414-3.179-5.12-7.819-5.12-13.92s1.706-10.741 5.12-13.92c3.413-3.179 8.15-4.768 14.208-4.768 2.944 0 5.76.405 8.448 1.216 2.688.81 4.778 1.728 6.272 2.752v12.672H349.72v-1.152c0-1.408-.299-2.443-.896-3.104-.598-.661-1.536-.992-2.816-.992-2.475 0-3.712 1.365-3.712 4.096V81.2c0 3.328 1.898 4.992 5.696 4.992 3.541 0 7.658-.384 12.352-1.152v10.048c-1.45.64-3.488 1.216-6.112 1.728a42.521 42.521 0 0 1-8.16.768zm35.294 0c-6.058 0-10.794-1.59-14.208-4.768-3.413-3.179-5.12-7.819-5.12-13.92s1.707-10.741 5.12-13.92c3.414-3.179 8.15-4.768 14.208-4.768 6.144 0 10.902 1.61 14.272 4.832 3.37 3.221 5.056 7.84 5.056 13.856 0 6.101-1.706 10.741-5.12 13.92-3.413 3.179-8.15 4.768-14.208 4.768zm0-11.392c1.238 0 2.166-.33 2.784-.992.619-.661.928-1.696.928-3.104v-6.4c0-1.408-.31-2.443-.928-3.104-.618-.661-1.546-.992-2.784-.992-1.237 0-2.165.33-2.784.992-.618.661-.928 1.696-.928 3.104v6.4c0 1.408.31 2.443.928 3.104.619.661 1.547.992 2.784.992zm85.407 0v10.496H446.55V86.192h2.688V75.696c0-1.408-.299-2.443-.896-3.104-.598-.661-1.494-.992-2.688-.992-2.56 0-3.84 1.365-3.84 4.096v10.496h2.688v10.496h-20.096V86.192h2.688V75.696c0-1.408-.299-2.443-.896-3.104-.598-.661-1.494-.992-2.688-.992-2.56 0-3.84 1.365-3.84 4.096v10.496h2.688v10.496h-20.224V86.192h2.816V71.6h-2.816V61.104h17.536v4.992c3.072-3.925 6.912-5.888 11.52-5.888 2.602 0 4.725.608 6.368 1.824 1.642 1.216 2.805 2.933 3.488 5.152 1.536-2.219 3.296-3.925 5.28-5.12 1.984-1.195 4.32-1.792 7.008-1.792 3.541 0 6.197 1.11 7.968 3.328 1.77 2.219 2.656 5.27 2.656 9.152v13.44h2.816z"/>
        </g>
    </g>
</svg>
